<svg data-name="Layer 1" xmlns="http://www.w3.org/2000/svg" width="1247.25" height="454" viewBox="0 0 1247.25 454"><title>logo</title><path d="M606.53 160.65c-9.1-2.19-22.58-4.38-33.51-4.38-13.84 0-18.94 8.39-18.94 20v53.56c0 12.39 5.1 20 18.94 20 12 0 25.87-7.29 33.51-13.84v-75.34zM501.61 176.3c0-41.89 18.22-65.57 59.75-65.57 14.57 0 33.15 2.19 45.17 5.1v-74L659 34.58V291.8h-41.18l-5.47-14.21c-12.38 8-35.33 17.85-54.64 17.85-36.06 0-56.1-22.23-56.1-65.58V176.3zM706.33 114.37h52.46V291.8h-52.46V114.37zm0-78h52.46v55.78h-52.46V36.4zM861.5 295.44c-19.31 0-47-4.73-64.48-10.56l8.38-39a192.47 192.47 0 0 0 53.55 8c15.67 0 18.22-4.38 18.22-14.94 0-11.29-.36-12.75-28.79-19.67-43-10.56-47-22.23-47-55.38 0-37.52 14.58-53.19 67.76-53.19 13.48 0 38.24 1.82 53.91 5.83l-4.74 40.81c-15.66-2.91-35-5.1-48.81-5.1-15.3 0-18.94 4-18.94 12 0 10.93 1.46 12.38 22.59 17.13 50.64 11.29 54.27 22.22 54.27 57.56 0 36.43-15.3 56.47-65.93 56.47M1023.24 295.44c-33.88 0-53.55-12.75-53.55-45.54v-93.26h-24v-42.27h24V71.74l52.46-7.28v49.91h40.43l-2.92 42.27h-37.52v86c0 7.29 4.37 9.85 10.93 9.85a72.41 72.41 0 0 0 21.85-3.28l6.19 39.71a123.58 123.58 0 0 1-37.88 6.55M1095 114.37h52.46V291.8H1095V114.37zm0-78h52.46v55.78H1095V36.4zM1194.8 291.8V41.87l52.45-7.29V291.8h-52.45z" fill="#007cba"/><path d="M512.18 352.6c0-2.55-1.36-3.75-3.75-3.75h-6.82v-18.4h19.94c7.67 0 11.42 3.58 11.42 9.72v2.55a24.16 24.16 0 0 1-.34 3.75h.37c3.75-7.33 13.13-18.07 30.68-18.07 19.26 0 30.34 10.06 30.34 33.06v33.92a3.41 3.41 0 0 0 3.75 3.74h6.82v18.24h-20.67c-8.18 0-11.59-3.41-11.59-11.59V365.9c0-10.57-2.72-17.73-13.63-17.73-11.59 0-20.28 7.33-23.35 17.73a36.77 36.77 0 0 0-1.7 11.59v39.88h-21.47V352.6zM673.58 362.66c-.34-10.4-7.5-17.56-16.36-17.56-11.09 0-18.92 6.65-21.31 17.56zm-16.36-34.26c24.87 0 38.51 18.24 38.51 41.25 0 2.56-.51 8-.51 8h-60c1.71 15.34 13 23.35 26.08 23.35 14 0 24.37-9.71 24.37-9.71l9 15a52.87 52.87 0 0 1-34.94 13.12c-28.79 0-46.69-20.79-46.69-45.51 0-26.76 18.06-45.51 44.14-45.51M717 347.66h-11.21v-17.21h11.76v-23.69h21.13v23.69h19.77v17.21h-19.77v35.11c0 14.32 11.25 16.36 17.21 16.36a20.06 20.06 0 0 0 3.92-.34v18.92a39.79 39.79 0 0 1-6.64.51c-12.1 0-36.13-3.58-36.13-32.73v-37.83zM772.78 351.92c-.85-2.55-2.22-3.07-4.77-3.07h-2.38v-18.4h14.82c7.16 0 10.57 2.21 12.27 8.86l12.78 48.24a74.38 74.38 0 0 1 1.7 9.2h.34a75.77 75.77 0 0 1 2-9.2l16-56.76h19.09l16.19 56.76a60.69 60.69 0 0 1 1.87 9.2h.34a76.15 76.15 0 0 1 1.7-9.2l12.61-48.24c1.7-6.65 5.11-8.86 12.27-8.86h14.89v18.41h-2.38c-2.56 0-3.75.51-4.77 3.07l-20.79 65.45h-24.37l-14.83-49.6a73.56 73.56 0 0 1-2-9.37H835s-.85 4.77-2.21 9.37l-14.66 49.6h-24.56l-20.79-65.45zM957.52 401c14.15 0 25.91-10.91 25.91-27.1 0-16-11.76-27.1-25.91-27.1-14 0-25.73 11.08-25.73 27.1 0 16.19 11.76 27.1 25.73 27.1m0-72.61c26.59 0 47.72 18.92 47.72 45.51 0 26.76-21.13 45.51-47.72 45.51-26.42 0-47.55-18.75-47.55-45.51 0-26.59 21.13-45.51 47.55-45.51M1024.84 352.6c0-2.55-1.36-3.75-3.75-3.75h-6.81v-18.4H1034c7.67 0 11.59 3.24 11.59 10.57v5.11a39.28 39.28 0 0 1-.34 5.45h.34c3.91-12.45 14.31-22.33 27.6-22.33a28.11 28.11 0 0 1 3.92.34v21.31a38.21 38.21 0 0 0-5.28-.34c-9.2 0-19.77 5.29-23.69 18.24a52.53 52.53 0 0 0-1.87 14.15v34.43h-21.47V352.6zM1092.68 328.91c0-2.56-1.36-3.75-3.75-3.75h-6.82v-18.4h20.63c8 0 11.58 1.87 11.58 9.89v44.48h6.48c2.72 0 6.3-.51 8.17-3.24l17.72-27.44h24l-22 32.73c-3.75 5.45-6.47 6.81-6.47 6.81v.34s3.07 1.2 6.13 6.82l9.89 18.75c1.36 2.56 3.07 3.24 7.16 3.24h5.79v18.24h-16c-7.33 0-10.23-1.19-13.64-7.49l-14.48-27.27c-1.7-3.07-5.29-3.24-8-3.24h-4.78v38h-21.64v-88.47zM1187.94 389.76s11.08 12.78 25.91 12.78c6.65 0 11.76-2.73 11.76-8.52 0-12.27-45.84-12.1-45.84-40.22 0-17.39 15.68-25.39 33.74-25.39 11.76 0 30.5 3.92 30.5 18.07v9h-19.09v-4.26c0-4.09-6.14-6.14-10.91-6.14-7.67 0-13 2.73-13 7.84 0 13.63 46.18 10.91 46.18 39.88 0 16.37-14.49 26.59-33.4 26.59-23.86 0-36.13-15.51-36.13-15.51l10.22-14.15zM132.64 244.71a9.1 9.1 0 0 1 0 12.87l-23.14 23.17a9.12 9.12 0 0 1-12.88 0l-23.14-23.16a9.11 9.11 0 0 1 0-12.87l23.14-23.15a9.11 9.11 0 0 1 12.88 0l23.14 23.15z" fill="#254252"/><path d="M206.61 258.13a9.11 9.11 0 0 1 0 12.87l-23.15 23.15a9.1 9.1 0 0 1-12.87 0L147.43 271a9.12 9.12 0 0 1 0-12.87L170.58 235a9.11 9.11 0 0 1 12.87 0l23.15 23.15z" fill="#007cba"/><path d="M129.43 164.24a9.11 9.11 0 0 1 0 12.87l-23.15 23.15a9.12 9.12 0 0 1-12.88 0l-23.15-23.14a9.12 9.12 0 0 1 0-12.87l23.15-23.16a9.11 9.11 0 0 1 12.88 0l23.15 23.15z" fill="#254252"/><path d="M61.84 180.34a9.12 9.12 0 0 1 0 12.87l-23.15 23.15a9.1 9.1 0 0 1-12.88 0L2.66 193.21a9.11 9.11 0 0 1 0-12.87l23.15-23.15a9.1 9.1 0 0 1 12.88 0l23.15 23.15z" fill="#007cba"/><path d="M97.23 67.66a9.1 9.1 0 0 1 0 12.88L74.1 103.69a9.1 9.1 0 0 1-12.88 0L38.07 80.54a9.12 9.12 0 0 1 0-12.88l23.15-23.14a9.11 9.11 0 0 1 12.88 0l23.13 23.14z" fill="#254252"/><path d="M161.61 93.41a9.14 9.14 0 0 1 0 12.88l-23.15 23.15a9.11 9.11 0 0 1-12.87 0l-23.14-23.14a9.13 9.13 0 0 1 0-12.88l23.15-23.15a9.09 9.09 0 0 1 12.87 0l23.15 23.15z" fill="#007cba"/><path d="M243.15 104.61a9.1 9.1 0 0 1 0 12.87L220 140.63a9.1 9.1 0 0 1-12.88 0L184 117.48a9.1 9.1 0 0 1 0-12.87l23.14-23.15a9.11 9.11 0 0 1 12.88 0l23.14 23.15z" fill="#254252"/><path d="M254.94 367a9.11 9.11 0 0 1 0 12.88l-23.14 23.18a9.1 9.1 0 0 1-12.88 0l-23.15-23.15a9.13 9.13 0 0 1 0-12.88l23.15-23.14a9.1 9.1 0 0 1 12.88 0L254.94 367zM316.09 338.06a9.12 9.12 0 0 1 0 12.88l-23.15 23.14a9.1 9.1 0 0 1-12.88 0l-23.14-23.14a9.11 9.11 0 0 1 0-12.88l23.14-23.15a9.11 9.11 0 0 1 12.88 0l23.14 23.15zM303.22 415.31a9.1 9.1 0 0 1 0 12.87l-23.15 23.16a9.12 9.12 0 0 1-12.88 0L244 428.18a9.11 9.11 0 0 1 0-12.87l23.15-23.15a9.11 9.11 0 0 1 12.88 0l23.14 23.14zM345.05 276.89a9.12 9.12 0 0 1 0 12.88l-23.14 23.15a9.11 9.11 0 0 1-12.87 0l-23.15-23.15a9.13 9.13 0 0 1 0-12.88L309 253.74a9.1 9.1 0 0 1 12.87 0l23.14 23.15zM393.33 325.18a9.12 9.12 0 0 1 0 12.87l-23.15 23.15a9.1 9.1 0 0 1-12.87 0l-23.15-23.15a9.13 9.13 0 0 1 0-12.88L357.32 302a9.09 9.09 0 0 1 12.87 0l23.15 23.16zM397.63 233.35a9.11 9.11 0 0 1 0 12.88l-23.13 23.15a9.11 9.11 0 0 1-12.88 0l-23.14-23.15a9.11 9.11 0 0 1 0-12.87l23.14-23.15a9.11 9.11 0 0 1 12.88 0l23.13 23.14zM449.12 284.87a9.09 9.09 0 0 1 0 12.87L426 320.89a9.1 9.1 0 0 1-12.88 0L390 297.74a9.1 9.1 0 0 1 0-12.87l23.14-23.15a9.11 9.11 0 0 1 12.88 0l23.13 23.15zM362.23 384.64a9.11 9.11 0 0 1 0 12.88l-23.14 23.15a9.1 9.1 0 0 1-12.87 0l-23.14-23.15a9.11 9.11 0 0 1 0-12.88l23.14-23.14a9.1 9.1 0 0 1 12.87 0l23.14 23.14z" fill="#007cba"/><path d="M184.14 25.81a9.13 9.13 0 0 1 0 12.88L161 61.84a9.09 9.09 0 0 1-12.87 0L125 38.69a9.1 9.1 0 0 1 0-12.88l23.12-23.14a9.09 9.09 0 0 1 12.87 0l23.15 23.14z" fill="#254252"/><path d="M204.76 172.6a9.11 9.11 0 0 1 0 12.87l-23.14 23.14a9.1 9.1 0 0 1-12.88 0l-23.14-23.14a9.12 9.12 0 0 1 0-12.88l23.14-23.14a9.11 9.11 0 0 1 12.88 0l23.14 23.15z" fill="#007cba"/><path d="M274.26 199.64a9.11 9.11 0 0 1 0 12.88l-23.14 23.14a9.1 9.1 0 0 1-12.87 0l-23.15-23.14a9.12 9.12 0 0 1 0-12.88l23.15-23.14a9.11 9.11 0 0 1 12.88 0l23.14 23.14zM312.9 135.27a9.12 9.12 0 0 1 0 12.87l-23.15 23.15a9.1 9.1 0 0 1-12.88 0l-23.14-23.15a9.1 9.1 0 0 1 0-12.87l23.14-23.15a9.13 9.13 0 0 1 12.88 0l23.15 23.15z" fill="#254252"/><path d="M304.86 110.32a184 184 0 0 1 29-20.93A84.68 84.68 0 0 1 351 81.71a40.44 40.44 0 0 1 10.22-1.88 22.64 22.64 0 0 1 12.46 2.77 20.24 20.24 0 0 1 3.05 2.22l1.13 1.1c.36.39 1 1.12 1.39 1.7a22 22 0 0 1 3.2 6.49 34.36 34.36 0 0 1 1.28 11.89 79.34 79.34 0 0 1-4.09 19.7c-4 12.17-9.47 23.2-15.34 33.9-11.85 21.31-25.82 40.94-40.71 59.71a659.08 659.08 0 0 1-47.78 53.45 665 665 0 0 1-53.24 48c-18.71 15-38.24 29-59.41 41a214.71 214.71 0 0 1-33.52 15.78 91.87 91.87 0 0 1-19.14 4.8 43.06 43.06 0 0 1-11.18 0 22.29 22.29 0 0 1-12.45-5.65l-.67-.69-.6-.63-.17-.22-.8-1.09a18.13 18.13 0 0 1-2-3.46 21.63 21.63 0 0 1-1.6-6.33 32.71 32.71 0 0 1 .97-10.8 74.06 74.06 0 0 1 7.1-17.57 173 173 0 0 1 20.55-29.38c-4.67 10.88-9.24 21.76-12.38 32.72-1.47 5.48-2.75 11-2.93 16.07A20.79 20.79 0 0 0 95 362a6.15 6.15 0 0 0 1 2c.21.24.41.41.35.26l.61.57.21.19c.11.13-.51-.55-.23-.27l.14.06c1.19.7 5.44.76 10-.66a81 81 0 0 0 14.3-5.91 241.71 241.71 0 0 0 28.3-17.67 652.1 652.1 0 0 0 53.34-43c8.59-7.62 17.12-15.34 25.41-23.28s16.6-15.87 24.73-24.12q24.43-24.39 47.22-50.27A629.34 629.34 0 0 0 343 146.35 218.8 218.8 0 0 0 360.24 118a65.6 65.6 0 0 0 5.22-14.11 18.67 18.67 0 0 0 .53-5.59 12.16 12.16 0 0 0-.25-1.55s.2.11.1-.07l-.34-.45-.16-.21-.09-.1c.12.1-.37-.41.23.23a3.79 3.79 0 0 0-.35-.53 7.28 7.28 0 0 0-4.29-1.77 30.67 30.67 0 0 0-7.24 0 90.55 90.55 0 0 0-16.17 3.59c-10.92 3.39-21.74 8.1-32.56 12.88" fill="#007cba"/></svg>