<?xml version="1.0" encoding="utf-8"?>
<!-- Generator: Adobe Illustrator 18.1.1, SVG Export Plug-In . SVG Version: 6.00 Build 0)  -->
<!DOCTYPE svg PUBLIC "-//W3C//DTD SVG 1.1//EN" "http://www.w3.org/Graphics/SVG/1.1/DTD/svg11.dtd">
<svg version="1.1" id="Layer_1" xmlns="http://www.w3.org/2000/svg" xmlns:xlink="http://www.w3.org/1999/xlink" x="0px" y="0px"
	 viewBox="0 0 153.5 99.5" enable-background="new 0 0 153.5 99.5" xml:space="preserve">
<path fill="#C41230" d="M75.3,4.5c-19-1.4-36.1,1.8-47,7.9C39.5,7.7,56.2,6,74,8.7c27.1,4.1,47.8,16.3,49.7,29.3
	c-3.5-9-17.4-17.3-35.3-21.1c-12-2.5-23.3-2.3-31.6,0.1c7.5-1,16.5-0.6,25.8,1.4c23,4.9,39.5,17.8,37,28.8c-0.8,3.5-3.5,6.4-7.5,8.6
	c2.5-0.8,4.7-1.8,6.5-3c7.6-4.2,12.4-9.7,12.8-16C132.2,21.3,107.2,6.8,75.3,4.5"/>
<path fill="#002D62" d="M144.5,1.1l-14.2,4.2c0,0-0.4,1.2-0.2,2.6L51.9,60.3l80.3-49c1.2,0.8,2.4,0.9,2.4,0.9L144.5,1.1"/>
<path fill="#002D62" d="M7.9,94.1L7.9,94.1c0-0.3-0.1-0.5-0.3-0.7c-0.2-0.1-0.5-0.2-0.8-0.2H5.1c-0.7,0-1.2,0.1-1.4,0.3
	c-0.2,0.2-0.3,0.5-0.3,1.1v1c0,0.5,0.1,0.8,0.3,1c0.2,0.2,0.7,0.3,1.4,0.3h1.2c0.7,0,1.1-0.1,1.3-0.2c0.2-0.1,0.3-0.4,0.3-0.7v-0.1
	h2.1c0,0,0,0,0,0.1c0,0.2,0,0.3,0,0.4c0,0.4-0.1,0.8-0.2,1.1c-0.1,0.3-0.3,0.5-0.5,0.7c-0.2,0.2-0.5,0.3-0.9,0.4
	c-0.4,0.1-0.9,0.1-1.7,0.1H4.5c-0.7,0-1.3,0-1.6-0.1c-0.3-0.1-0.6-0.2-0.9-0.4c-0.3-0.2-0.5-0.5-0.6-0.8c-0.1-0.3-0.2-0.7-0.2-1.2
	v-1.9c0-1,0.2-1.7,0.7-2.1c0.5-0.4,1.3-0.6,2.6-0.6h2.3c0.8,0,1.3,0,1.7,0.1c0.4,0.1,0.6,0.2,0.8,0.3c0.2,0.2,0.4,0.4,0.5,0.7
	c0.1,0.3,0.2,0.6,0.2,1.1c0,0.1,0,0.2,0,0.2c0,0.1,0,0.1,0,0.2H7.9z"/>
<path fill="#002D62" d="M18.8,96.6c-0.2-0.2-0.4-0.5-0.4-1v-1c0-0.5,0.1-0.9,0.4-1.1c0.2-0.2,0.7-0.3,1.5-0.3h1.3
	c0.7,0,1.2,0.1,1.5,0.3c0.2,0.2,0.4,0.5,0.4,1v1c0,0.5-0.1,0.9-0.4,1c-0.2,0.2-0.7,0.3-1.5,0.3h-1.3C19.5,96.9,19,96.8,18.8,96.6
	 M22.2,98.6c0.8,0,1.4,0,1.8-0.1c0.4-0.1,0.7-0.2,0.9-0.4c0.3-0.2,0.4-0.5,0.6-0.8c0.1-0.3,0.2-0.8,0.2-1.3v-1.9
	c0-0.5-0.1-1-0.2-1.3c-0.1-0.3-0.3-0.6-0.6-0.8c-0.2-0.2-0.5-0.3-0.9-0.4c-0.4-0.1-1-0.1-1.8-0.1h-2.5c-0.8,0-1.4,0-1.8,0.1
	c-0.4,0.1-0.7,0.2-0.9,0.4c-0.3,0.2-0.5,0.5-0.6,0.8c-0.1,0.3-0.2,0.8-0.2,1.4v1.9c0,0.5,0.1,1,0.2,1.3c0.1,0.3,0.3,0.6,0.6,0.8
	c0.2,0.2,0.5,0.3,0.9,0.4c0.4,0.1,1,0.1,1.8,0.1H22.2z"/>
<polygon fill="#002D62" points="42.4,98.5 39.3,98.5 35.2,93.5 35.2,98.5 33,98.5 33,91.6 36.2,91.6 40.3,96.7 40.3,91.6 42.4,91.6 
	"/>
<path fill="#002D62" d="M50.4,96.2l2.1,0v0.1c0,0.3,0.1,0.4,0.2,0.5c0.1,0.1,0.4,0.1,0.8,0.1h2.6c0.3,0,0.5,0,0.6-0.1
	c0.1-0.1,0.2-0.2,0.2-0.4c0-0.2-0.1-0.4-0.2-0.4c-0.1-0.1-0.4-0.1-0.8-0.2l-3.3-0.1c-0.8,0-1.4-0.2-1.7-0.5
	c-0.3-0.3-0.4-0.8-0.4-1.6c0-0.4,0-0.7,0.1-1c0.1-0.3,0.2-0.5,0.4-0.6c0.2-0.2,0.5-0.3,0.8-0.4c0.3-0.1,0.9-0.1,1.6-0.1h3.2
	c0.8,0,1.4,0.1,1.7,0.4c0.4,0.3,0.5,0.8,0.5,1.4v0.1c0,0.1,0,0.1,0,0.2h-2v0c0-0.2-0.1-0.4-0.2-0.5c-0.1-0.1-0.3-0.2-0.5-0.2h-2.4
	c-0.4,0-0.7,0-0.8,0.1c-0.1,0.1-0.2,0.2-0.2,0.4c0,0.2,0.1,0.3,0.2,0.4c0.1,0.1,0.3,0.1,0.6,0.2l3.5,0.1c0.8,0,1.3,0.2,1.7,0.5
	c0.3,0.3,0.5,0.9,0.5,1.7c0,0.5-0.1,0.8-0.2,1.1c-0.1,0.3-0.3,0.5-0.6,0.7c-0.2,0.1-0.4,0.2-0.8,0.3c-0.3,0.1-0.8,0.1-1.4,0.1h-2.8
	c-1.2,0-1.9-0.1-2.3-0.4c-0.4-0.3-0.6-0.7-0.6-1.4c0,0,0-0.1,0-0.2C50.4,96.5,50.4,96.4,50.4,96.2"/>
<path fill="#002D62" d="M67.2,91.6h2.1v4.1c0,0.5,0.1,0.8,0.3,0.9c0.2,0.2,0.7,0.2,1.4,0.2h1.2c0.6,0,1-0.1,1.2-0.3
	c0.2-0.2,0.3-0.5,0.3-0.9v-4.1h2.1v4.8c0,0.8-0.2,1.4-0.7,1.7c-0.4,0.3-1.2,0.5-2.3,0.5h-2.3c-1.3,0-2.1-0.2-2.6-0.5
	c-0.5-0.3-0.7-0.9-0.7-1.7V91.6z"/>
<polygon fill="#002D62" points="86.6,96.9 91.2,96.9 91.2,98.5 84.5,98.5 84.5,91.6 86.6,91.6 "/>
<polygon fill="#002D62" points="102.2,98.5 100.1,98.5 100.1,93.3 97.2,93.3 97.2,91.6 105.1,91.6 105.1,93.3 102.2,93.3 "/>
<rect x="112.7" y="91.6" fill="#002D62" width="2.1" height="6.9"/>
<polygon fill="#002D62" points="134.5,98.5 131.4,98.5 127.2,93.5 127.2,98.5 125.1,98.5 125.1,91.6 128.2,91.6 132.3,96.7 
	132.3,91.6 134.5,91.6 "/>
<path fill="#002D62" d="M149.5,94.1L149.5,94.1c0-0.3-0.1-0.6-0.3-0.7c-0.2-0.1-0.6-0.2-1.3-0.2h-1.2c-0.7,0-1.2,0.1-1.4,0.3
	c-0.2,0.2-0.3,0.5-0.3,1.1v1c0,0.5,0.1,0.8,0.3,1c0.2,0.2,0.7,0.3,1.4,0.3h1.2c0.6,0,1-0.1,1.3-0.2c0.2-0.1,0.3-0.3,0.3-0.6
	c0,0,0-0.1,0-0.2v0H147v-1.4h4.7v2.3c0,0.7-0.2,1.1-0.7,1.4c-0.5,0.3-1.3,0.4-2.5,0.4h-2.3c-0.7,0-1.2,0-1.6-0.1
	c-0.3-0.1-0.6-0.2-0.9-0.4c-0.3-0.2-0.5-0.5-0.6-0.8c-0.1-0.3-0.2-0.7-0.2-1.2v-1.9c0-1,0.2-1.7,0.7-2.1c0.5-0.4,1.3-0.6,2.5-0.6
	h2.4c0.8,0,1.3,0,1.7,0.1c0.4,0.1,0.6,0.2,0.9,0.3c0.2,0.2,0.4,0.4,0.5,0.7c0.1,0.3,0.2,0.6,0.2,1.1V94c0,0.1,0,0.1,0,0.2H149.5z"/>
<rect x="1.2" y="87.1" fill="#C41230" width="150.5" height="0.7"/>
<path fill="#002D62" d="M14.9,78.4H7.6l0.7-2h7.3L14.9,78.4z M20.6,76.2c0-0.5-0.4-0.9-1.2-1.2c-0.8-0.3-1.8-0.5-3-0.5H9.1
	c-1.1,0-2.1,0.1-3.1,0.4c-1.5,0.4-2.3,0.9-2.6,1.7l-1.8,4.9c0,0.1-0.1,0.3-0.1,0.4c0,0.6,0.4,1,1.2,1.4c0.8,0.3,1.8,0.5,3,0.5h7.3
	c1.1,0,2.3-0.2,3.5-0.6c1.2-0.4,1.9-0.8,2.1-1.2H6.3L7,80.1h7.4c3.3,0,5.1-0.6,5.6-1.9l0.7-1.8C20.6,76.3,20.6,76.2,20.6,76.2"/>
<path fill="#002D62" d="M46.8,74.5L39.8,79l3.5,4.7h-5.5l-1.8-2.7L34,82.5c-1.2,0.8-2.3,1.2-3.3,1.2h-4.3l7.2-4.7l-3.3-4.5h5.2
	l2.1,2.5l3.7-2.5H46.8z"/>
<path fill="#002D62" d="M72.4,76.4l-0.1,0.2c-0.6,1.2-2.5,1.7-5.6,1.7l0.7-1.9h-7.3l-2,5.6h7.3c0.7-1.2,2.6-1.9,5.7-1.9l-0.6,1.6
	c-0.2,0.6-0.8,1-1.9,1.4c-1.1,0.4-2.3,0.6-3.7,0.6h-7.3c-2.8,0-4.2-0.6-4.2-1.8c0-0.2,0-0.5,0.1-0.7l1.6-4.4
	c0.5-1.5,2.5-2.3,5.8-2.3h7.2c2.9,0,4.3,0.5,4.3,1.7C72.4,76.2,72.4,76.3,72.4,76.4"/>
<path fill="#002D62" d="M93.5,78.4h-7.3l0.7-2h7.3L93.5,78.4z M99.2,76.2c0-0.5-0.4-0.9-1.3-1.2c-0.8-0.3-1.8-0.5-3-0.5h-7.3
	c-1.1,0-2.1,0.1-3.1,0.4c-1.4,0.4-2.3,0.9-2.6,1.7l-1.8,4.9c0,0.1-0.1,0.3-0.1,0.4c0,0.6,0.4,1,1.2,1.4c0.8,0.3,1.8,0.5,3,0.5h7.3
	c1.1,0,2.3-0.2,3.5-0.6c1.2-0.4,1.9-0.8,2.1-1.2H84.9l0.7-1.9H93c3.3,0,5.1-0.6,5.6-1.9l0.7-1.8C99.2,76.3,99.2,76.2,99.2,76.2"/>
<path fill="#002D62" d="M115.2,70.7l-4.1,11.1c-0.3,0.7-0.8,1.2-1.7,1.5c-0.8,0.3-2.2,0.4-4,0.4l4.8-13H115.2z"/>
<path fill="#002D62" d="M129,70.7l-4.1,11.1c-0.3,0.7-0.8,1.2-1.7,1.5c-0.8,0.3-2.2,0.4-4,0.4l4.8-13H129z"/>
<path fill="#002D62" d="M146.2,81.9h-7.2l0.7-1.9h7.2L146.2,81.9z M153.2,76.1c0-0.5-0.3-0.9-1-1.2c-0.7-0.3-1.6-0.5-2.7-0.5h-11.6
	l-0.1,0.2c-0.3,1.2,0.7,1.7,3,1.7h7.3l-0.7,1.9h-7.8c-1.4,0-2.5,0.1-3.1,0.3c-1.1,0.3-1.8,1-2.2,2.1l-0.2,0.7
	c-0.1,0.3-0.1,0.5-0.1,0.7c0,1.1,1.3,1.7,4,1.7h12.5l2.6-7.3C153.2,76.3,153.2,76.2,153.2,76.1"/>
</svg>
