<?xml version="1.0" encoding="utf-8"?>
<!-- Generator: Adobe Illustrator 19.1.0, SVG Export Plug-In . SVG Version: 6.00 Build 0)  -->
<svg version="1.1" id="Layer_1" xmlns="http://www.w3.org/2000/svg" xmlns:xlink="http://www.w3.org/1999/xlink" x="0px" y="0px"
	 viewBox="-113.3 213 404.3 115.4" style="enable-background:new -113.3 213 404.3 115.4;" xml:space="preserve">
<style type="text/css">
	.st0{fill:#FAFAFA;}
	.st1{fill:#FAA818;}
	.st2{fill:none;}
</style>
<title>optoro-wm-final-wg</title>
<path class="st0" d="M150,312c-0.6,0-1-0.4-1-1v-38.7c0-7.1,2.2-12.6,6.5-16.5s10.5-5.8,18.2-5.8c4.1-0.2,8.2,0.5,12,2
	c2.8,1.2,4.2,3.1,4.2,5.7c0,1.2-0.4,2.5-1,3.5c-0.5,0.8-1.3,1.3-2.2,1.3c-0.3,0-0.6-0.1-0.9-0.2c-0.9-0.3-1.8-0.6-2.8-0.9
	c-2.3-0.6-4.7-0.9-7.1-0.9c-9.9,0-14.9,5.3-14.9,15.7V311c0,0.6-0.4,1-1,1h-10H150z M61.2,311.4c1.9-0.4,3.7-0.9,5.5-1.6
	c1.4-0.5,2.8-1.2,4.1-2c1.1-0.7,1.5-2.2,0.8-3.3l-2.2-3.7c-0.4-0.7-1.1-1.2-1.9-1.3h-0.3c-0.3,0-0.7,0.1-1,0.2
	c-0.6,0.2-1.2,0.5-1.9,0.7c-2.2,0.8-4.5,1.1-6.8,1.1c-1.5,0-2.9-0.2-4.3-0.5c-1.4-0.3-2.7-0.9-3.8-1.8c-1.1-0.9-2-2.1-2.6-3.5
	c-0.7-1.7-1-3.6-0.9-5.4v-25.6c0-1.1,0.9-2,2-2h11.5c3.1,0,5.5-2.5,5.5-5.6c0-1-0.3-2-0.8-2.8c-0.9-1.6-2.5-2.5-4.4-2.5H48
	c-1.1,0-2-0.9-2-2V239c0-2.8-2.2-5-5-5h-2c-2.8,0-5,2.2-5,5v54c0,5.7,1.7,10.3,5.2,13.8s8.6,5.2,15.4,5.2
	C56.8,312,59,311.8,61.2,311.4z M254,281c0,17.1-13.9,31-31,31s-31-13.9-31-31s13.9-31,31-31S254,263.9,254,281L254,281z M242.5,281
	c0-10.8-8.7-19.5-19.5-19.5s-19.5,8.7-19.5,19.5s8.7,19.5,19.5,19.5S242.5,291.8,242.5,281L242.5,281z M138,281
	c0,17.1-13.9,31-31,31s-31-13.9-31-31s13.9-31,31-31S138,263.9,138,281L138,281z M126.5,281c0-10.8-8.7-19.5-19.5-19.5
	s-19.5,8.7-19.5,19.5s8.7,19.5,19.5,19.5S126.5,291.8,126.5,281L126.5,281z M-49,281c0,17.1-13.9,31-31,31s-31-13.9-31-31
	s13.9-31,31-31S-49,263.9-49,281L-49,281z M-60.5,281c0-10.8-8.7-19.5-19.5-19.5s-19.5,8.7-19.5,19.5s8.7,19.5,19.5,19.5
	S-60.5,291.8-60.5,281L-60.5,281z M22.8,284.2c-1.8,17-17,29.4-34,27.6c-5.8-0.6-11.2-2.8-15.8-6.3V327c0,0.6-0.4,1-1,1h-10
	c-0.6,0-1-0.4-1-1v-47.5c-0.1-11,6.2-21.2,16.1-26C1.4,241.9,25.2,260.8,22.8,284.2z M11.5,281c0-10.8-8.7-19.5-19.5-19.5
	s-19.5,8.7-19.5,19.5s8.7,19.5,19.5,19.5S11.5,291.8,11.5,281L11.5,281z"/>
<path class="st1" d="M228,213.6L228,213.6c0-0.3,0.3-0.6,0.6-0.6H291v62.4c0,0.3-0.3,0.6-0.6,0.6l0,0c-0.3,0-0.6-0.2-0.6-0.6
	c-2.7-32.6-28.6-58.5-61.2-61.2C228.2,214.2,228,214,228,213.6z"/>
<rect x="-204" y="157" class="st2" width="551" height="248"/>
</svg>
