<svg xmlns="http://www.w3.org/2000/svg" viewBox="0 0 523.78 270.15"><title>Asset 1</title><g id="Layer_2" data-name="Layer 2"><g id="Layer_1-2" data-name="Layer 1"><path d="M436.64,0H87.14A87.39,87.39,0,0,0,0,87.14v45.11a87.39,87.39,0,0,0,87.14,87.14H96A3.76,3.76,0,0,1,99.65,224C95.52,240.8,84.43,255.49,69,266a2.11,2.11,0,0,0,1,3.87q4.07.32,8.24.31c38.31,0,70.95-20,83.43-48a4.78,4.78,0,0,1,4.38-2.78H436.64a87.39,87.39,0,0,0,87.14-87.14V87.14A87.39,87.39,0,0,0,436.64,0Z" style="fill:#1f64ff"/><path d="M149.56,85.63l-29.17,81H99.33l-29.18-81h17.5l22.21,64.84,22.2-64.84Z" style="fill:#fff"/><path d="M165,61.32a10.63,10.63,0,1,1,10.71,10.54h0A10.67,10.67,0,0,1,165,61.32Zm18.84,24.31v81H167.55v-81Z" style="fill:#fff"/><path d="M252.78,168.3c-12.32,0-20.74-6.17-24.95-14.28v12.65h-16.2V53.27h16.2v44C232.35,89.69,241,84,252.67,84c20.74,0,36.46,17.5,36.63,42.14C289.41,151.27,273.37,168.3,252.78,168.3ZM273,126.16c0-15.23-8.91-26.75-23-26.75s-23,11.52-23,26.75,8.91,26.73,23,26.73S273,141.34,273,126.16Z" style="fill:#fff"/><path d="M379.34,133.61H320.19c2.11,12.16,9.89,19.28,21.88,19.28,9.72,0,18.32-4.86,22.21-11.83L377.83,149c-7,11.66-20.9,19.28-35.65,19.28-23.5,0-39.06-18.8-39.06-42.14S318.68,84,342.18,84c17.34,0,34.35,10.37,37.11,35.18A72,72,0,0,1,379.34,133.61ZM320,119h43.11c-.49-13.93-11.29-19.61-21.38-19.61C329.45,99.41,322.14,106.87,320,119Z" style="fill:#fff"/><path d="M423.9,168.78c-17,0-28.84-8.75-31.44-21.88l14.42-4.43c1.79,6.78,7.62,11.68,16.86,11.68,7.9,0,15.24-3.57,15.24-9.41,0-6.15-7.62-8.42-17-11.18-12-3.56-26-8.75-26-24.84,0-15.07,12.42-25,29.16-25,15.73,0,26.74,8.76,29.18,21.88L440.38,110c-1.57-7.2-7.39-11.58-15-11.58s-13.13,4-13.13,9.4c0,5.84,7.14,8.27,14.59,10.54,10.69,3.24,28.36,7.78,28.36,25.28C455.19,158.89,441.9,168.78,423.9,168.78Z" style="fill:#fff"/></g></g></svg>