<svg id="Layer_2" data-name="Layer 2" xmlns="http://www.w3.org/2000/svg" viewBox="0 0 712 345.87"><defs><style>.cls-1{fill:#00a0de;}.cls-2{fill:#fff;}</style></defs><title>Vibes_logo (1)</title><path class="cls-1" d="M664.41,32.45H135.59C85.05,32.45,44,79.06,44,136.36v66.28c0,57.16,40.8,103.5,91.16,103.75,24.93,2.12,43.42,38.84-14.53,71.93,0,0,84.45,1.13,134.56-71.87H664.41C715,306.45,756,260,756,202.64V136.36C756,79.06,715,32.45,664.41,32.45Z" transform="translate(-44 -32.45)"/><path class="cls-2" d="M107.42,150.19c-1.76-4-2.27-6.44-2.27-9.32,0-10.22,9.09-15.54,18.93-15.54,10.09,0,14.38,6.43,16.14,11.32l23.21,63.06h.51l23.21-63.06c1.77-4.89,6.06-11.32,16.15-11.32,9.84,0,18.92,5.32,18.92,15.54,0,2.88-.5,5.33-2.27,9.32l-36.58,82.6c-3.54,8.21-7.32,13.32-19.68,13.32S147.54,241,144,232.79Z" transform="translate(-44 -32.45)"/><path class="cls-2" d="M276.72,94.91c0,10-9.08,18.43-20.44,18.43-10.85,0-20.43-8.66-20.43-18.43,0-9.11,9.58-17.54,20.43-17.54S276.72,85.58,276.72,94.91Zm-38.6,48.18c0-10.66,7.57-17.76,18.16-17.76s18.17,7.1,18.17,17.76v85.26c0,10.65-7.57,17.76-18.17,17.76s-18.16-7.11-18.16-17.76Z" transform="translate(-44 -32.45)"/><path class="cls-2" d="M300.94,91.58c0-10.66,7.57-17.77,18.16-17.77s18.17,7.11,18.17,17.77v43.51c9.59-7.32,22-11.1,34.56-11.1,39.11,0,58.54,32.2,58.54,63.28,0,30.2-23.21,60.17-59.8,60.17-12.36,0-26.49-4.88-33.3-14.65-2.27,8.44-8.07,13.32-18.17,13.32-10.59,0-18.16-7.11-18.16-17.76Zm64.84,126.55c18.92,0,28.26-17.31,28.26-32.19,0-15.1-9.34-32.64-28.26-32.64-19.43,0-28.51,16-28.51,31.53S345.85,218.13,365.78,218.13Z" transform="translate(-44 -32.45)"/><path class="cls-2" d="M481.33,196.38c2.53,15.76,17.41,23.09,34.32,23.09,18.67,0,31.54-12.88,41.12-12.88,7.82,0,14.89,6.88,14.89,13.76,0,13.77-32.3,27.09-59.29,27.09-40.88,0-68.12-26.2-68.12-61.5,0-32.42,26.74-61.95,65.09-61.95,39.36,0,65.35,31.53,65.35,58.17,0,9.55-4.8,14.22-15.9,14.22Zm57-21.32c-2-14-12.12-24.42-29-24.42-16.15,0-27,10.88-28.76,24.42Z" transform="translate(-44 -32.45)"/><path class="cls-2" d="M670.31,161.29c-6.81,0-20.69-9.32-32.55-9.32-6.56,0-12.36,2.66-12.36,8.88,0,14.88,63.07,12.66,63.07,49.07,0,21.31-20.43,37.52-51.72,37.52-20.43,0-50.71-10.21-50.71-24.64,0-4.89,5.55-14.21,15.64-14.21,14.13,0,20.44,10.88,37.6,10.88,11.1,0,14.38-3.11,14.38-9.11,0-14.65-63.08-12.43-63.08-49.07,0-22.2,20.44-37.3,49.2-37.3,17.91,0,45.42,7.33,45.42,23.09C685.2,154.41,678.89,161.29,670.31,161.29Z" transform="translate(-44 -32.45)"/></svg>
